# xmcd
#
# Track frame offsets:
#	150
#	20013
#	32483
#	49708
#	74555
#	82123
#	97088
#	106948
#	110548
#	136553
#	156423
#	194115
#	242125
#	272438
#
# Disc length: 3919 seconds
#
# Revision: 1
# Processed by: cddbd v1.5.1PL0 Copyright (c) Steve Scherf et al.
# Submitted via: CDex 1.50Beta5
#
DISCID=c50f4d0e
DTITLE=Chopin - Chopin
DYEAR=1900
DGENRE=CLASS
TTITLE0=エテュード 第3番 ホ長調(別れの曲)
TTITLE1=エテュード 第12番 ハ長調(革命)
TTITLE2=エテュード 第23番 イ短調(木枯らし)
TTITLE3=ワルツ 第1番 変ホ長調(華麗なる大円舞曲)
TTITLE4=ワルツ 第6番 変ニ長調(子犬のワルツ)
TTITLE5=ワルツ 第7番 嬰ハ短調
TTITLE6=マズルカ 第5番 変ロ長調
TTITLE7=プレリュード 第7番 イ長調
TTITLE8=プレリュード 第15番 変ニ長調(雨だれ)
TTITLE9=ノクターン 第二番 変ホ長調
TTITLE10=ソナタ 第2番 変ロ長調(葬送行進曲)第3楽章
TTITLE11=コンチェルト 第1番 ホ短調 第2楽章(ロマンス)
TTITLE12=ポロネーズ 第6番 変イ長調(英雄)
TTITLE13=即興曲 第4番 嬰ハ短調(幻想即興曲)
EXTD=
EXTT0=
EXTT1=
EXTT2=
EXTT3=
EXTT4=
EXTT5=
EXTT6=
EXTT7=
EXTT8=
EXTT9=
EXTT10=
EXTT11=
EXTT12=
EXTT13=
PLAYORDER=
